<svg width="23" height="28" viewBox="0 0 23 28" fill="none" xmlns="http://www.w3.org/2000/svg">
<path d="M11.0625 27.4375C7.89583 27.4375 5.26042 26.3568 3.15625 24.1955C1.05208 22.0342 0 19.344 0 16.125C0 13.875 0.911458 11.4167 2.73438 8.75C4.55729 6.08333 7.33333 3.16667 11.0625 0C14.7917 3.16667 17.5677 6.08333 19.3906 8.75C21.2135 11.4167 22.125 13.875 22.125 16.125C22.125 19.344 21.0729 22.0342 18.9688 24.1955C16.8646 26.3568 14.2292 27.4375 11.0625 27.4375ZM11.0669 23.5C13.1265 23.5 14.8281 22.8012 16.1719 21.4035C17.5156 20.0058 18.1875 18.2463 18.1875 16.125C18.1875 14.75 17.599 13.1615 16.4219 11.3594C15.2448 9.55729 13.4583 7.52083 11.0625 5.25C8.66667 7.52083 6.88021 9.55729 5.70312 11.3594C4.52604 13.1615 3.9375 14.75 3.9375 16.125C3.9375 18.2463 4.61083 20.0058 5.95749 21.4035C7.30414 22.8012 9.00727 23.5 11.0669 23.5ZM7.3125 21.1875H14.8125V18.6875H7.3125V21.1875ZM9.8125 17.4375H12.3125V14.9375H14.8125V12.4375H12.3125V9.9375H9.8125V12.4375H7.3125V14.9375H9.8125V17.4375Z" fill="#D61F1F"/>
</svg>
